<svg version="1.1"
	 xmlns="http://www.w3.org/2000/svg" xmlns:xlink="http://www.w3.org/1999/xlink" xmlns:a="http://ns.adobe.com/AdobeSVGViewerExtensions/3.0/"
	 x="0px" y="0px" width="893.027px" height="892.986px" viewBox="0 0 893.027 892.986"
	 style="enable-background:new 0 0 893.027 892.986;" xml:space="preserve">
<defs>
</defs>
<g>
	<path style="fill-rule:evenodd;clip-rule:evenodd;fill:rgba(0,0,0,0.5);" d="M379.432,293.175c84.621-37.021,183.383,1.623,220.406,86.24
		c37.023,84.617-1.623,183.374-86.244,220.395c-84.621,37.021-183.382-1.622-220.405-86.239
		C256.167,428.953,294.811,330.196,379.432,293.175z M307.928,22.001c-27.434,8.957-53.938,20.552-79.135,34.621l14.728,69.15
		c-23.536,14.896-45.359,32.336-65.078,52.004l-64.203-29.613c-19.281,21.473-36.435,44.765-51.222,69.548l47.33,52.522
		c-12.934,24.666-23.113,50.682-30.355,77.574l-70.409,6.453C3.622,382.497,0.413,411.246,0,440.102l67.252,21.821
		c1.132,27.828,5.324,55.446,12.5,82.358l-57.749,40.791c8.956,27.433,20.552,53.936,34.622,79.132l69.153-14.727
		c14.896,23.535,32.336,45.357,52.006,65.075l-29.615,64.2c21.474,19.281,44.767,36.434,69.551,51.22l52.525-47.328
		c24.667,12.934,50.683,23.113,77.577,30.354l6.454,70.406c28.238,5.961,56.987,9.17,85.844,9.583l21.823-67.249
		c27.829-1.132,55.449-5.323,82.362-12.499l40.793,57.746c27.435-8.956,53.938-20.551,79.135-34.621l-14.728-69.149
		c23.536-14.895,45.359-32.334,65.078-52.004l64.202,29.614c19.281-21.473,36.436-44.765,51.224-69.549l-47.331-52.522
		c12.933-24.665,23.115-50.681,30.356-77.574l70.408-6.453c5.96-28.236,9.171-56.984,9.584-85.84l-67.252-21.822
		c-1.133-27.827-5.325-55.446-12.5-82.358l57.749-40.791c-8.957-27.432-20.553-53.935-34.622-79.132l-69.153,14.727
		c-14.897-23.535-32.337-45.357-52.006-65.075l29.615-64.199c-21.474-19.28-44.768-36.435-69.552-51.221l-52.524,47.329
		c-24.666-12.932-50.685-23.113-77.578-30.354l-6.453-70.405C510.512,3.623,481.762,0.413,452.905,0l-21.822,67.248
		c-27.828,1.133-55.448,5.324-82.362,12.5L307.928,22.001z"/>
</g>
</svg>